<?xml version="1.0" encoding="UTF-8" standalone="no"?>
<svg
   version="1.1"
   id="svg2"
   inkscape:output_extension="org.inkscape.output.svg.inkscape"
   sodipodi:docname="print-bear.svg"
   inkscape:version="1.1.2 (b8e25be833, 2022-02-05)"
   sodipodi:version="0.32"
   x="0px"
   y="0px"
   width="580px"
   height="580px"
   viewBox="0 0 580 580"
   enable-background="new 0 0 580 580"
   xml:space="preserve"
   xmlns:inkscape="http://www.inkscape.org/namespaces/inkscape"
   xmlns:sodipodi="http://sodipodi.sourceforge.net/DTD/sodipodi-0.dtd"
   xmlns="http://www.w3.org/2000/svg"
   xmlns:svg="http://www.w3.org/2000/svg"
   xmlns:rdf="http://www.w3.org/1999/02/22-rdf-syntax-ns#"
   xmlns:cc="http://creativecommons.org/ns#"
   xmlns:dc="http://purl.org/dc/elements/1.1/"><metadata
     id="metadata75"><rdf:RDF><cc:Work
         rdf:about=""><dc:format>image/svg+xml</dc:format><dc:type
           rdf:resource="http://purl.org/dc/dcmitype/StillImage" /><dc:title /></cc:Work></rdf:RDF></metadata><sodipodi:namedview
     showgrid="false"
     inkscape:cy="65.978836"
     inkscape:cx="408.91534"
     inkscape:zoom="0.65172414"
     pagecolor="#ffffff"
     bordercolor="#666666"
     guidetolerance="10.0"
     objecttolerance="10.0"
     gridtolerance="10.0"
     borderopacity="1.0"
     id="base"
     inkscape:current-layer="svg2"
     inkscape:window-y="-8"
     inkscape:window-x="-8"
     inkscape:pageopacity="0.0"
     inkscape:pageshadow="2"
     inkscape:window-height="1369"
     inkscape:window-width="2560"
     inkscape:window-maximized="1"
     inkscape:pagecheckerboard="0" /><defs
     id="defs4"><inkscape:perspective
       inkscape:vp_z="580 : 290 : 1"
       inkscape:vp_y="0 : 1000 : 0"
       inkscape:vp_x="0 : 290 : 1"
       sodipodi:type="inkscape:persp3d"
       id="perspective3653"
       inkscape:persp3d-origin="290 : 193.33333 : 1" /><pattern
       y="0"
       x="0"
       height="6"
       width="6"
       patternUnits="userSpaceOnUse"
       id="EMFhbasepattern" /></defs><ellipse
     fill="param(fill) #000"
     fill-opacity="param(fill-opacity)"
     stroke="param(outline) #FFF"
     stroke-opacity="param(outline-opacity)"
     stroke-width="1.7739"
     id="path4272-7-5"
     cx="129.4245"
     cy="137.12578"
     rx="40.509171"
     ry="54.420086"
     transform="matrix(0.99472986,0.10253053,-0.03140725,0.99950667,0,0)"
     inkscape:transform-center-x="46.278006"
     inkscape:transform-center-y="31.758985" /><path
     fill="param(fill) #000"
     fill-opacity="param(fill-opacity)"
     stroke="param(outline) #FFF"
     stroke-opacity="param(outline-opacity)"
     stroke-width="1.7739"
     d="m 406.5485,208.32463 c 18.68866,8.94602 35.56853,12.26246 54.70655,29.474 17.67354,15.89447 18.89405,52.57381 17.86149,79.79423 -1.71722,45.26827 -33.37452,105.36334 -39.67099,130.04443 C 429.11788,488.12006 410.09848,583.74423 319.79943,576.4528 237.90374,563.97254 227.72321,508.36225 191.94565,464.55539 164.48183,430.92801 140.63277,366.81076 127.60228,351.49753 109.865,330.6529 107.49203,258.25458 126.4306,234.43723 c 23.23607,-29.2214 49.48234,-30.78632 77.07258,-39.264 75.52115,-20.70387 113.5564,-12.48633 203.04532,13.1514 z"
     id="path4319"
     inkscape:connector-curvature="0"
     sodipodi:nodetypes="csascasscc" /><path
     fill="param(fill) #000"
     fill-opacity="param(fill-opacity)"
     stroke="param(outline) #FFF"
     stroke-opacity="param(outline-opacity)"
     stroke-width="1.7739"
     d="m 111.16804,81.218374 c -0.28599,5.497033 19.75298,2.652782 18.56091,-2.056031 -0.99649,-3.936433 -6.50771,-27.045926 -11.11338,-27.020303 -4.2636,0.02369 -7.16154,23.579311 -7.44753,29.076334 z"
     id="path4328"
     inkscape:connector-curvature="0"
     sodipodi:nodetypes="zssz" /><ellipse
     fill="param(fill) #000"
     fill-opacity="param(fill-opacity)"
     stroke="param(outline) #FFF"
     stroke-opacity="param(outline-opacity)"
     stroke-width="1.7739"
     id="path4272-7-5-4"
     cx="224.1503"
     cy="60.421013"
     rx="40.505669"
     ry="54.420097"
     transform="matrix(0.9765595,0.21524765,-0.14633747,0.98923473,0,0)"
     inkscape:transform-center-x="49.612305"
     inkscape:transform-center-y="26.24699" /><ellipse
     fill="param(fill) #000"
     fill-opacity="param(fill-opacity)"
     stroke="param(outline) #FFF"
     stroke-opacity="param(outline-opacity)"
     stroke-width="1.7739"
     id="path4272-7-5-4-8"
     cx="315.117"
     cy="19.010569"
     rx="37.299534"
     ry="51.144882"
     transform="matrix(0.96727834,0.2537176,-0.20078013,0.97963633,0,0)"
     inkscape:transform-center-x="47.134845"
     inkscape:transform-center-y="22.896043" /><ellipse
     fill="param(fill) #000"
     fill-opacity="param(fill-opacity)"
     stroke="param(outline) #FFF"
     stroke-opacity="param(outline-opacity)"
     stroke-width="1.7739"
     id="path4272-7-5-4-8-9"
     cx="403.97482"
     cy="-16.000654"
     rx="36.237694"
     ry="51.066322"
     transform="matrix(0.94351853,0.33131977,-0.26707309,0.96367628,0,0)"
     inkscape:transform-center-x="47.207737"
     inkscape:transform-center-y="19.318062" /><ellipse
     fill="param(fill) #000"
     fill-opacity="param(fill-opacity)"
     stroke="param(outline) #FFF"
     stroke-opacity="param(outline-opacity)"
     stroke-width="1.7739"
     id="path4272-7-5-4-8-9-3"
     cx="482.10162"
     cy="134.72801"
     rx="33.26017"
     ry="43.240028"
     transform="matrix(0.99833973,0.05760014,-0.0944424,0.99553033,0,0)"
     inkscape:transform-center-x="39.650761"
     inkscape:transform-center-y="27.050343" /><path
     fill="param(fill) #000"
     fill-opacity="param(fill-opacity)"
     stroke="param(outline) #FFF"
     stroke-opacity="param(outline-opacity)"
     stroke-width="1.7739"
     d="m 202.26711,36.410421 c -0.75224,5.452813 19.45597,4.322271 18.6685,-0.470821 -0.65827,-4.006899 -4.18513,-27.5012341 -8.7763,-27.8672068 -4.25019,-0.3387953 -9.13999,22.8852138 -9.8922,28.3380278 z"
     id="path4328-2"
     inkscape:connector-curvature="0"
     sodipodi:nodetypes="zssz" /><path
     fill="param(fill) #000"
     fill-opacity="param(fill-opacity)"
     stroke="param(outline) #FFF"
     stroke-opacity="param(outline-opacity)"
     stroke-width="1.7739"
     d="m 300.53331,31.573828 c -1.3705,5.331118 18.83449,6.517547 18.59999,1.665852 -0.19603,-4.05587 -1.01463,-27.7993403 -5.53389,-28.6876329 -4.18365,-0.822321 -11.69561,21.6906619 -13.0661,27.0217809 z"
     id="path4328-2-4"
     inkscape:connector-curvature="0"
     sodipodi:nodetypes="zssz" /><path
     fill="param(fill) #000"
     fill-opacity="param(fill-opacity)"
     stroke="param(outline) #FFF"
     stroke-opacity="param(outline-opacity)"
     stroke-width="1.7739"
     d="m 395.55901,47.158115 c -1.93253,5.154066 18.02989,8.493524 18.31533,3.644563 0.23866,-4.053579 1.9628,-27.748518 -2.43562,-29.114806 -4.07175,-1.264825 -13.94722,20.316172 -15.87971,25.470243 z"
     id="path4328-2-4-1"
     inkscape:connector-curvature="0"
     sodipodi:nodetypes="zssz" /><path
     fill="param(fill) #000"
     fill-opacity="param(fill-opacity)"
     stroke="param(outline) #FFF"
     stroke-opacity="param(outline-opacity)"
     stroke-width="1.7739"
     d="m 472.99257,94.925799 c -2.01837,5.121061 17.88548,8.793611 18.2519,3.950089 0.30636,-4.049028 2.42618,-27.711863 -1.94878,-29.151444 -4.05007,-1.332687 -14.28476,20.080293 -16.30312,25.201355 z"
     id="path4328-2-4-1-8"
     inkscape:connector-curvature="0"
     sodipodi:nodetypes="zssz" /></svg>
